<mxfile host="app.diagrams.net" modified="2023-05-03T11:13:56.491Z" agent="Mozilla/5.0 (Windows NT 10.0; Win64; x64) AppleWebKit/537.36 (KHTML, like Gecko) Chrome/112.0.0.0 Safari/537.36" version="21.2.3" etag="-FLnOmCGAFqcJvgDkYkS" type="github">
  <diagram name="第 1 页" id="rddprFw7EVT3BamI3d3N">
    <mxGraphModel>
      <root>
        <mxCell id="0" />
        <mxCell id="1" parent="0" />
      </root>
    </mxGraphModel>
  </diagram>
</mxfile>
